<svg width="135" height="130" viewBox="0 0 135 130" fill="none" xmlns="http://www.w3.org/2000/svg">
<path d="M0 12C0 5.37258 5.37258 0 12 0H122.223C128.85 0 134.223 5.37258 134.223 12V18.224H0V12Z" fill="white"/>
<path d="M0 75.0175V18.1257H18.0974V75.0175H0Z" fill="white"/>
<path d="M128 75.0175C121.373 75.0175 116 69.6449 116 63.0175V18.1257H134.097V75.0175H128Z" fill="white"/>
<path d="M12 129.902C5.37258 129.902 0 124.529 0 117.902V64.4474H18V129.902H12Z" fill="white"/>
<path d="M116 113.342V56.3917H134.097V113.342H116Z" fill="white"/>
<path d="M0 111.776H134.223V118C134.223 124.627 128.85 130 122.223 130H12C5.37259 130 0 124.627 0 118V111.776Z" fill="white"/>
</svg>
