<svg width="135" height="130" viewBox="0 0 135 130" fill="none" xmlns="http://www.w3.org/2000/svg">
<path d="M134.543 12C134.543 5.37258 129.17 0 122.543 0L12.3201 0C5.69269 0 0.320099 5.37258 0.320099 12V18.224H134.543V12Z" fill="white"/>
<path d="M122.543 75.0175C129.17 75.0175 134.543 69.6449 134.543 63.0175V18.1257H116.445V75.0175H122.543Z" fill="white"/>
<path d="M134.543 65.8524C134.543 60.6273 130.307 56.3915 125.082 56.3915H12.3201C5.69269 56.3915 0.320099 61.7641 0.320099 68.3915V75.3134H125.082C130.307 75.3134 134.543 71.0775 134.543 65.8524Z" fill="white"/>
<path d="M18.5427 113.342L18.5427 56.3917H12.4453C5.81787 56.3917 0.445293 61.7643 0.445293 68.3917L0.445293 113.342H18.5427Z" fill="white"/>
<path d="M134.543 111.776H0.320099V118C0.320099 124.627 5.69269 130 12.3201 130H122.543C129.17 130 134.543 124.627 134.543 118V111.776Z" fill="white"/>
</svg>
