<svg width="135" height="130" viewBox="0 0 135 130" fill="none" xmlns="http://www.w3.org/2000/svg">
<path d="M0.542725 12C0.542725 5.37258 5.91531 0 12.5427 0H122.765C129.393 0 134.765 5.37258 134.765 12V18.224H0.542725V12Z" fill="white"/>
<path d="M128.543 75.0175C121.915 75.0175 116.543 69.6449 116.543 63.0175V18.1257H134.64V75.0175H128.543Z" fill="white"/>
<path d="M0.542725 62.3915C0.542725 59.0778 3.22902 56.3915 6.54272 56.3915H122.765C129.393 56.3915 134.765 61.7641 134.765 68.3915V75.3134H6.54273C3.22902 75.3134 0.542725 72.6271 0.542725 69.3134V62.3915Z" fill="white"/>
<path d="M116.543 113.342V56.3917H122.64C129.268 56.3917 134.64 61.7643 134.64 68.3917V113.342H116.543Z" fill="white"/>
<path d="M0.542725 111.776H134.765V118C134.765 124.627 129.393 130 122.765 130H12.5427C5.91531 130 0.542725 124.627 0.542725 118V111.776Z" fill="white"/>
</svg>
