<svg width="135" height="130" viewBox="0 0 135 130" fill="none" xmlns="http://www.w3.org/2000/svg">
<path d="M12.7654 74.1702C6.13796 74.1702 0.765381 68.7976 0.765381 62.1702L0.765381 12C0.765381 5.37256 6.13796 -3.05176e-05 12.7654 -3.05176e-05H18.8628L18.8628 74.1702H12.7654Z" fill="white"/>
<path d="M122.863 74.1702C129.49 74.1702 134.863 68.7976 134.863 62.1702V12C134.863 5.37256 129.49 -3.05176e-05 122.863 -3.05176e-05H116.765V74.1702H122.863Z" fill="white"/>
<path d="M0.765381 65.1213C0.765381 59.9623 4.94755 55.7802 10.1065 55.7802H122.988C129.615 55.7802 134.988 61.1527 134.988 67.7801V74.4624H10.1065C4.94755 74.4624 0.765381 70.2802 0.765381 65.1213Z" fill="white"/>
<path d="M116.765 130V55.7801H122.863C129.49 55.7801 134.863 61.1527 134.863 67.7801V118C134.863 124.627 129.49 130 122.863 130H116.765Z" fill="white"/>
</svg>
