<svg width="136" height="130" viewBox="0 0 136 130" fill="none" xmlns="http://www.w3.org/2000/svg">
<path d="M0.988037 12C0.988037 5.37258 6.36062 0 12.988 0H123.211C129.838 0 135.211 5.37258 135.211 12V18.224H0.988037V12Z" fill="white"/>
<path d="M12.988 75.0175C6.36062 75.0175 0.988037 69.6449 0.988037 63.0175L0.988037 18.1257H19.0855L19.0855 75.0175H12.988Z" fill="white"/>
<path d="M0.988037 65.8524C0.988037 60.6273 5.22384 56.3915 10.449 56.3915H123.211C129.838 56.3915 135.211 61.7641 135.211 68.3915V75.3134H10.449C5.22385 75.3134 0.988037 71.0775 0.988037 65.8524Z" fill="white"/>
<path d="M116.988 113.342V56.3917H123.085C129.713 56.3917 135.085 61.7643 135.085 68.3917V113.342H116.988Z" fill="white"/>
<path d="M0.988037 111.776H135.211V118C135.211 124.627 129.838 130 123.211 130H12.988C6.36063 130 0.988037 124.627 0.988037 118V111.776Z" fill="white"/>
</svg>
