<svg width="135" height="130" viewBox="0 0 135 130" fill="none" xmlns="http://www.w3.org/2000/svg">
<path d="M0.211304 67.6647C0.211304 61.0373 5.58389 55.6647 12.2113 55.6647H122.434C129.061 55.6647 134.434 61.0373 134.434 67.6647V74.39H0.211304V67.6647Z" fill="white"/>
<path d="M12.2107 130C5.58327 130 0.210693 124.627 0.210693 118L0.210693 73.6415H18.3081L18.3081 130H12.2107Z" fill="white"/>
<path d="M116.336 130V73.6415H134.433V118C134.433 124.627 129.061 130 122.433 130H116.336Z" fill="white"/>
<path d="M4.73535 12C4.73535 5.37258 10.1079 0 16.7354 0H117.909C124.537 0 129.909 5.37258 129.909 12V18.0347H4.73535V12Z" fill="white"/>
<path d="M0.210693 86.3883L0.210693 42.0023H6.30813C12.9355 42.0023 18.3081 47.3749 18.3081 54.0023L18.3081 74.3883C18.3081 81.0157 12.9355 86.3883 6.30813 86.3883H0.210693Z" fill="white"/>
<path d="M0.210693 12C0.210693 5.37258 5.58328 0 12.2107 0H122.433C129.061 0 134.433 5.37258 134.433 12V18.0347H0.210693V12Z" fill="white"/>
<path d="M0.210693 111.965H134.433V118C134.433 124.627 129.061 130 122.433 130H12.2107C5.58328 130 0.210693 124.627 0.210693 118V111.965Z" fill="white"/>
<path d="M12.2109 74.2075C5.58352 74.2075 0.210938 68.8349 0.210938 62.2075L0.210938 17.9067H18.3084L18.3084 74.2075H12.2109Z" fill="white"/>
<path d="M116.336 112.519V56.1602H122.433C129.061 56.1602 134.433 61.5328 134.433 68.1602V112.519H116.336Z" fill="white"/>
<path d="M0.210693 12C0.210693 5.37258 5.58328 0 12.2107 0H122.433C129.061 0 134.433 5.37258 134.433 12V18.0347H0.210693V12Z" fill="white"/>
<path d="M0.210938 111.965H134.434V118C134.434 124.627 129.061 130 122.434 130H12.2109C5.58353 130 0.210938 124.627 0.210938 118V111.965Z" fill="white"/>
<path d="M48.7654 68.176C48.7654 61.5486 54.138 56.176 60.7654 56.176H85.7654V62.2133C85.7654 68.8407 80.3928 74.2133 73.7654 74.2133H48.7654V68.176Z" fill="white"/>
<path d="M0.210693 111.965H134.433V118C134.433 124.627 129.061 130 122.433 130H12.2107C5.58328 130 0.210693 124.627 0.210693 118V111.965Z" fill="white"/>
<path d="M0.210693 12C0.210693 5.37258 5.58328 0 12.2107 0H122.433C129.061 0 134.433 5.37258 134.433 12V18.0347H0.210693V12Z" fill="white"/>
<path d="M17.988 55.8058H65.988C69.3017 55.8058 71.988 58.4921 71.988 61.8058V67.843C71.988 71.1567 69.3017 73.843 65.988 73.843H17.988V55.8058Z" fill="white"/>
</svg>
