<svg width="135" height="130" viewBox="0 0 135 130" fill="none" xmlns="http://www.w3.org/2000/svg">
<path d="M0.656738 12C0.656738 5.37258 6.02932 0 12.6567 0H122.879C129.507 0 134.879 5.37258 134.879 12V18.224H0.656738V12Z" fill="white"/>
<path d="M0.656738 75.0175L0.656738 18.1257H18.7542L18.7542 75.0175H0.656738Z" fill="white"/>
<path d="M128.657 75.0175C122.029 75.0175 116.657 69.6449 116.657 63.0175V18.1257H134.754V75.0175H128.657Z" fill="white"/>
<path d="M12.6567 129.902C6.02932 129.902 0.656738 124.529 0.656738 117.902L0.656738 64.4474H18.6567L18.6567 129.902H12.6567Z" fill="white"/>
<path d="M0.656738 68.3915C0.656738 61.7641 6.02932 56.3915 12.6567 56.3915H134.657V75.5243H0.656738V68.3915Z" fill="white"/>
<path d="M116.657 113.342V56.3917H134.754V113.342H116.657Z" fill="white"/>
<path d="M0.656738 111.776H134.879V118C134.879 124.627 129.507 130 122.879 130H12.6567C6.02933 130 0.656738 124.627 0.656738 118V111.776Z" fill="white"/>
</svg>
