<svg width="136" height="130" viewBox="0 0 136 130" fill="none" xmlns="http://www.w3.org/2000/svg">
<path d="M0.879395 12C0.879395 5.37258 6.25198 0 12.8794 0H123.102C129.729 0 135.102 5.37258 135.102 12V18.224H0.879395V12Z" fill="white"/>
<path d="M12.8794 75.0175C6.25198 75.0175 0.879395 69.6449 0.879395 63.0175L0.879395 18.1257H18.9768L18.9768 75.0175H12.8794Z" fill="white"/>
<path d="M128.879 75.0175C122.252 75.0175 116.879 69.6449 116.879 63.0175V18.1257H134.977V75.0175H128.879Z" fill="white"/>
<path d="M0.879395 65.9579C0.879395 60.6745 5.16243 56.3915 10.4458 56.3915H134.879V75.5243H10.4458C5.16243 75.5243 0.879395 71.2413 0.879395 65.9579Z" fill="white"/>
<path d="M116.879 113.342V56.3917H122.977C129.604 56.3917 134.977 61.7643 134.977 68.3917V113.342H116.879Z" fill="white"/>
<path d="M0.879395 111.776H135.102V118C135.102 124.627 129.729 130 123.102 130H12.8794C6.25198 130 0.879395 124.627 0.879395 118V111.776Z" fill="white"/>
</svg>
