<svg width="12799" height="1476" viewBox="0 0 12799 1476" fill="none" xmlns="http://www.w3.org/2000/svg">
<path d="M6153.69 50.7907C5991.73 -5.34831 5813.38 -20.5809 5639.34 33.9889C5284.07 145.384 5034.44 435.836 4955.93 741.996C4916.68 895.076 4922.06 1062.64 5010.89 1205.74C5099.72 1348.83 5269.44 1444.9 5476.06 1469.51L5477.58 1168C5352.22 1153.07 5353.44 1061.52 5328.39 1021.17C5303.33 980.814 5293.22 914.906 5315.42 828.325C5359.82 655.163 5541.01 441.558 5753.51 374.927C5789.3 363.707 5826.18 358.051 5864.18 357.787C5945.84 249.233 6046.23 142.056 6153.69 50.7907H6153.69Z" fill="#550022"/>
<path d="M7967.24 1274.17C8086.14 1180.79 8157.1 951.362 8124.21 763.284C7895.09 964.15 7550.23 1061.77 7294.29 948.57C7095.99 855.049 6890.99 678.022 6765.07 514.778C6634.59 345.621 6468.84 198.078 6277.1 102.711C6085.37 7.34354 5858.92 -34.8605 5639.35 33.9871C5284.08 145.382 5034.44 435.839 4955.93 741.999C4916.68 895.078 4922.06 1062.65 5010.89 1205.74C5099.72 1348.83 5269.44 1444.9 5476.06 1469.51L5477.58 1168C5352.23 1153.07 5353.44 1061.52 5328.39 1021.17C5303.33 980.814 5293.21 914.903 5315.42 828.322C5359.82 655.16 5541.01 441.562 5753.52 374.93C5861.37 341.114 5979.18 357.492 6107.78 421.455C6236.37 485.417 6367.03 597.932 6468.24 729.149C6629.62 938.359 6863.86 1144.28 7132.02 1270.74C7400.17 1397.2 7772.27 1436.01 7967.24 1274.17L7967.24 1274.17Z" fill="url(#paint0_linear)"/>
<path d="M8132.23 853.799C8131.94 823.069 8129.35 792.672 8124.21 763.285C7895.09 964.151 7550.22 1061.77 7294.29 948.567C7095.99 855.046 6890.99 678.019 6765.07 514.774C6634.59 345.618 6468.83 198.075 6277.1 102.708C6085.36 7.34033 5858.91 -34.8593 5639.34 33.9883C5284.07 145.383 5034.44 435.835 4955.93 741.995C4936.02 819.654 4927.62 901.042 4935.75 981.072C4939.09 962.506 4943.11 944.075 4947.78 925.854C5026.29 619.694 5275.93 329.242 5631.19 217.847C5850.77 149 6077.22 191.199 6268.95 286.567C6460.68 381.934 6626.44 529.477 6756.92 698.633C7185.4 1325.2 7967.24 1274.17 8120.75 980.623C8128.59 938.887 8132.61 896.035 8132.23 853.799ZM5477.58 1168C5352.22 1153.07 5353.44 1061.52 5328.38 1021.17C5322.68 1011.97 5317.79 1001.38 5313.84 989.594C5311.43 997.181 5309.18 1004.73 5307.27 1012.18C5285.07 1098.76 5295.19 1164.67 5320.24 1205.03C5345.29 1245.38 5344.08 1336.93 5469.43 1351.86L5468.84 1468.56C5471.25 1468.87 5473.64 1469.22 5476.06 1469.51L5477.58 1168Z" fill="url(#paint1_linear)"/>
<path d="M6932.65 696.385C6868.89 637.233 6811.58 575.065 6765.07 514.771C6722 458.934 6675.06 405.476 6624.63 355.448C6545.72 452.815 6464.07 538.546 6369.15 616.03C6404.29 651.477 6437.61 689.449 6468.23 729.146C6524.31 801.839 6589.2 874.122 6661.23 942.824C6746.31 847.556 6834.02 758.695 6932.65 696.385Z" fill="url(#paint2_linear)"/>
<path d="M6232.8 645.671C6097.95 782.118 5969.88 938.121 5848.48 1025.02C5727.08 1111.91 5556.58 1139.46 5451.46 1126.94L5476.06 1469.51C5702.92 1496.53 5904.38 1407.27 6067.29 1290.66C6230.21 1174.04 6368.7 1026.72 6500.48 893.366C6632.27 760.016 6754.74 635.897 6866.19 579.897C6976.03 524.705 7223.64 418.064 7532.8 678.441C7646.75 -62.4219 6595.67 278.682 6232.8 645.671Z" fill="url(#paint3_linear)"/>
<path d="M7543.65 575.79C7544.39 421.139 7468.28 263.801 7290.03 186.56C7209.24 141.386 6965.88 106.865 6676.3 274.222C6506.04 372.625 6366.02 512.192 6231.17 648.639C6096.33 785.086 5966.82 918.593 5845.42 1005.49C5724.02 1092.38 5556.57 1139.46 5451.46 1126.94L5465.13 1332.57C5570.52 1342.86 5734.26 1295.96 5853.57 1210.56C5974.96 1123.67 6104.47 990.16 6239.32 853.712C6374.17 717.265 6514.18 577.698 6684.45 479.295C6974.03 311.939 7217.39 346.46 7298.17 391.634C7429.3 448.451 7504.67 548.815 7535.32 659.363C7540.36 631.983 7543.52 603.84 7543.65 575.79Z" fill="url(#paint4_linear)"/>
<path d="M5989.93 9.78634C5844.4 -8.12309 5735.97 1.69346 5639.34 33.9823C5286.35 151.945 5034.44 435.834 4955.94 741.993C4916.68 895.073 4922.05 1062.65 5010.89 1205.74C5099.72 1348.83 5269.44 1444.89 5476.06 1469.5C5677.47 1502.73 5902.98 1400.63 5991.28 1341.07C5053.49 1150.98 5386.55 589.717 5989.93 9.78634H5989.93Z" fill="url(#paint5_linear)"/>
<path d="M5991.28 1341.07C5053.49 1150.98 5386.55 589.723 5989.92 9.79218C5907.31 -0.373004 5836.68 -1.58882 5773.35 5.15143C5215.15 626.06 4939.75 1214.27 5830.05 1421.45C5898.82 1395.43 5956.01 1364.86 5991.28 1341.07H5991.28Z" fill="url(#paint6_linear)"/>
<path d="M1326.75 74.2476V1308.97H975.844L967.489 599.887H362.599L357.587 1308.97H0V74.2476H1326.75ZM967.489 599.887H362.599H967.489H362.599H967.489Z" fill="#130064"/>
<path d="M9588.88 256.297H9156.1V1309.34H8806.87V256.297H8369.08L8220.36 74.6162H9737.6L9588.88 256.297Z" fill="#FFBD00"/>
<path d="M2901.97 1309.34L1944.51 637.297V1309.34H1595.28V74.6162L2557.75 741.367V74.6162H2901.97V1309.34Z" fill="#53026C"/>
<path d="M4485.66 74.2476V1308.97H4134.76L4126.41 599.887H3521.52L3516.5 1308.97H3158.92V74.2476H4485.66ZM4126.41 599.887H3521.52H4126.41H3521.52H4126.41Z" fill="#C70247"/>
<path d="M10389.6 1309.34H10740.5V727.256L11288.6 74.6162H10884.2L10565.1 455.617L10245.9 74.6162H9841.53L10389.6 727.256V1309.34Z" fill="#FD0003"/>
<path d="M12798.6 74.2476V1308.97H12447.7L12439.3 599.887H11834.5L11829.4 1308.97H11471.9V74.2476H12798.6ZM12439.3 599.887H11834.5H12439.3H11834.5H12439.3Z" fill="#002D03"/>
<defs>
<linearGradient id="paint0_linear" x1="6045.68" y1="288.599" x2="6508.87" y2="603.951" gradientUnits="userSpaceOnUse">
<stop stop-color="#0B1728"/>
<stop offset="1" stop-color="#3737C8"/>
</linearGradient>
<linearGradient id="paint1_linear" x1="7897.71" y1="1845.11" x2="6602.61" y2="-210.436" gradientUnits="userSpaceOnUse">
<stop stop-color="#0000AA"/>
<stop offset="1" stop-color="#440055"/>
</linearGradient>
<linearGradient id="paint2_linear" x1="6708.51" y1="704.219" x2="6779.97" y2="789.207" gradientUnits="userSpaceOnUse">
<stop stop-color="#0B0000" stop-opacity="0.713592"/>
<stop offset="1" stop-color="#3737C8" stop-opacity="0"/>
</linearGradient>
<linearGradient id="paint3_linear" x1="5870.74" y1="1242.68" x2="7117.31" y2="447.392" gradientUnits="userSpaceOnUse">
<stop stop-color="#FF0000"/>
<stop offset="1" stop-color="#FFCC00"/>
</linearGradient>
<linearGradient id="paint4_linear" x1="7044.71" y1="461.638" x2="5600.93" y2="1518.14" gradientUnits="userSpaceOnUse">
<stop stop-color="#002B11"/>
<stop offset="1" stop-color="#CCFF00"/>
</linearGradient>
<linearGradient id="paint5_linear" x1="5480.58" y1="51.7127" x2="5261.13" y2="1061.32" gradientUnits="userSpaceOnUse">
<stop stop-color="#D00043"/>
<stop offset="1" stop-color="#572279"/>
</linearGradient>
<linearGradient id="paint6_linear" x1="5864.18" y1="357.787" x2="5458.9" y2="1294.24" gradientUnits="userSpaceOnUse">
<stop stop-color="#800033" stop-opacity="0.941176"/>
<stop offset="1" stop-color="#441650"/>
</linearGradient>
</defs>
</svg>
