<svg width="4645" height="2626" viewBox="0 0 4645 2626" fill="none" xmlns="http://www.w3.org/2000/svg">
<g filter="url(#filter0_f)">
<path d="M1676.81 372.526C1454.79 283.887 1210.31 259.836 971.743 345.998C484.742 521.881 142.547 980.484 34.9257 1463.89C-18.8846 1705.59 -11.5098 1970.16 110.262 2196.1C232.034 2422.03 464.677 2573.71 747.915 2612.58L749.998 2136.51C578.162 2112.93 579.825 1968.39 545.484 1904.68C511.144 1840.96 497.273 1736.9 527.708 1600.19C588.578 1326.78 836.947 989.518 1128.25 884.312C1177.3 866.597 1227.86 857.667 1279.96 857.249C1391.89 685.852 1529.51 516.627 1676.81 372.526Z" fill="#550022"/>
<path d="M4162.83 2304.15C4325.81 2156.7 4423.09 1794.46 4378 1497.5C4063.93 1814.65 3591.19 1968.78 3240.35 1790.05C2968.52 1642.39 2687.5 1362.88 2514.89 1105.12C2336.03 838.04 2108.82 605.08 1845.99 454.503C1583.16 303.925 1272.74 237.288 971.751 345.993C484.75 521.876 142.553 980.487 34.9314 1463.89C-18.8792 1705.59 -11.5105 1970.17 110.261 2196.1C232.032 2422.04 464.685 2573.71 747.923 2612.57L750.002 2136.52C578.166 2112.94 579.828 1968.39 545.487 1904.68C511.146 1840.96 497.273 1736.89 527.708 1600.19C588.578 1326.78 836.952 989.522 1128.25 884.316C1276.1 830.922 1437.6 856.783 1613.88 957.774C1790.15 1058.77 1969.25 1236.42 2108 1443.6C2329.21 1773.93 2650.32 2099.05 3017.9 2298.73C3385.49 2498.4 3895.57 2559.68 4162.83 2304.15L4162.83 2304.15Z" fill="url(#paint0_linear)"/>
<path d="M4389 1640.41C4388.61 1591.89 4385.05 1543.9 4378 1497.5C4063.93 1814.65 3591.19 1968.78 3240.35 1790.04C2968.52 1642.38 2687.5 1362.87 2514.89 1105.12C2336.03 838.034 2108.81 605.075 1845.98 454.497C1583.16 303.92 1272.74 237.29 971.744 345.995C484.743 521.878 142.548 980.481 34.9267 1463.88C7.62836 1586.5 -3.8819 1715.01 7.2597 1841.37C11.8412 1812.05 17.3544 1782.95 23.7597 1754.18C131.381 1270.78 473.575 812.178 960.577 636.294C1261.57 527.589 1571.99 594.219 1834.82 744.797C2097.65 895.374 2324.86 1128.33 2503.73 1395.42C3091.09 2384.72 4162.83 2304.15 4373.27 1840.66C4384.01 1774.76 4389.53 1707.1 4389 1640.41ZM749.999 2136.51C578.164 2112.93 579.826 1968.39 545.486 1904.67C537.662 1890.16 530.967 1873.44 525.55 1854.82C522.248 1866.8 519.162 1878.72 516.542 1890.49C486.107 2027.19 499.978 2131.26 534.319 2194.97C568.659 2258.69 566.996 2403.24 738.832 2426.82L738.026 2611.08C741.328 2611.56 744.601 2612.12 747.917 2612.57L749.999 2136.51Z" fill="url(#paint1_linear)"/>
<path d="M2744.62 1391.88C2657.21 1298.48 2578.65 1200.32 2514.89 1105.12C2455.85 1016.96 2391.5 932.555 2322.39 853.564C2214.21 1007.3 2102.29 1142.66 1972.17 1265C2020.34 1320.97 2066.02 1380.93 2107.99 1443.61C2184.86 1558.38 2273.81 1672.51 2372.55 1780.99C2489.17 1630.57 2609.41 1490.26 2744.62 1391.88Z" fill="url(#paint2_linear)"/>
<path d="M1785.24 1311.8C1600.4 1527.24 1424.84 1773.55 1258.42 1910.75C1092.01 2047.95 858.282 2091.45 714.184 2071.68L747.915 2612.57C1058.89 2655.24 1335.04 2514.31 1558.37 2330.18C1781.7 2146.06 1971.54 1913.44 2152.19 1702.89C2332.84 1492.34 2500.73 1296.37 2653.5 1207.95C2804.07 1120.8 3143.49 952.425 3567.29 1363.54C3723.49 193.774 2282.67 732.351 1785.24 1311.8Z" fill="url(#paint3_linear)"/>
<path d="M3582.18 1201.46C3583.19 957.28 3478.86 708.856 3234.51 586.899C3123.76 515.573 2790.16 461.067 2393.21 725.31C2159.81 880.681 1967.88 1101.05 1783.03 1316.49C1598.18 1531.92 1420.65 1742.72 1254.24 1879.92C1087.83 2017.12 858.287 2091.46 714.19 2071.68L732.936 2396.35C877.401 2412.61 1101.86 2338.56 1265.4 2203.72C1431.82 2066.52 1609.35 1855.72 1794.2 1640.28C1979.05 1424.84 2170.98 1204.48 2404.38 1049.11C2801.33 784.863 3134.93 839.368 3245.67 910.694C3425.42 1000.4 3528.74 1158.87 3570.76 1333.42C3577.67 1290.19 3582 1245.75 3582.18 1201.46Z" fill="url(#paint4_linear)"/>
<path d="M1452.32 307.78C1252.83 279.503 1104.19 295.002 971.743 345.984C487.856 532.238 142.545 980.478 34.9237 1463.88C-18.8867 1705.58 -11.519 1970.16 110.253 2196.1C232.024 2422.03 464.673 2573.7 747.911 2612.56C1024 2665.03 1333.14 2503.82 1454.18 2409.78C168.647 2109.64 625.214 1223.45 1452.32 307.78H1452.32Z" fill="url(#paint5_linear)"/>
<path d="M1454.19 2409.78C168.658 2109.64 625.217 1223.45 1452.33 307.789C1339.09 291.739 1242.26 289.819 1155.45 300.462C390.267 1280.83 12.7451 2209.56 1233.18 2536.7C1327.44 2495.6 1405.85 2447.34 1454.19 2409.78H1454.19Z" fill="url(#paint6_linear)"/>
</g>
<defs>
<filter id="filter0_f" x="0.776465" y="290.105" width="4390.49" height="2334.94" filterUnits="userSpaceOnUse" color-interpolation-filters="sRGB">
<feFlood flood-opacity="0" result="BackgroundImageFix"/>
<feBlend mode="normal" in="SourceGraphic" in2="BackgroundImageFix" result="shape"/>
<feGaussianBlur stdDeviation="1.1125" result="effect1_foregroundBlur"/>
</filter>
<linearGradient id="paint0_linear" x1="1528.75" y1="748.005" x2="2217.41" y2="1155.06" gradientUnits="userSpaceOnUse">
<stop stop-color="#0B1728"/>
<stop offset="1" stop-color="#3737C8"/>
</linearGradient>
<linearGradient id="paint1_linear" x1="4067.51" y1="3205.62" x2="1912.27" y2="235.777" gradientUnits="userSpaceOnUse">
<stop stop-color="#0000AA"/>
<stop offset="1" stop-color="#440055"/>
</linearGradient>
<linearGradient id="paint2_linear" x1="2437.36" y1="1404.25" x2="2551.84" y2="1522.44" gradientUnits="userSpaceOnUse">
<stop stop-color="#0B0000" stop-opacity="0.713592"/>
<stop offset="1" stop-color="#3737C8" stop-opacity="0"/>
</linearGradient>
<linearGradient id="paint3_linear" x1="1288.93" y1="2254.43" x2="3128.8" y2="1235.36" gradientUnits="userSpaceOnUse">
<stop stop-color="#FF0000"/>
<stop offset="1" stop-color="#FFCC00"/>
</linearGradient>
<linearGradient id="paint4_linear" x1="2898.23" y1="1021.23" x2="733.163" y2="2396.71" gradientUnits="userSpaceOnUse">
<stop stop-color="#002B11"/>
<stop offset="1" stop-color="#CCFF00"/>
</linearGradient>
<linearGradient id="paint5_linear" x1="754.103" y1="373.979" x2="360.811" y2="1944.92" gradientUnits="userSpaceOnUse">
<stop stop-color="#D00043"/>
<stop offset="1" stop-color="#572279"/>
</linearGradient>
<linearGradient id="paint6_linear" x1="1279.96" y1="857.246" x2="579.02" y2="2263.37" gradientUnits="userSpaceOnUse">
<stop stop-color="#800033" stop-opacity="0.941176"/>
<stop offset="1" stop-color="#441650"/>
</linearGradient>
</defs>
</svg>
