<svg width="4645" height="2626" viewBox="0 0 4645 2626" fill="none" xmlns="http://www.w3.org/2000/svg">
<path d="M2087.12 2259H1996.11V2243.62L2040.14 2199.49C2051.37 2188.25 2059.38 2178.92 2064.15 2171.47C2069 2163.96 2071.42 2155.95 2071.42 2147.46C2071.42 2138.75 2068.93 2132.01 2063.94 2127.23C2058.96 2122.46 2051.87 2120.07 2042.67 2120.07C2029.18 2120.07 2016.26 2125.83 2003.91 2137.35V2119.23C2015.7 2110.03 2029.43 2105.43 2045.09 2105.43C2058.57 2105.43 2069.17 2109.08 2076.9 2116.38C2084.62 2123.69 2088.48 2133.48 2088.48 2145.77C2088.48 2155.46 2085.82 2164.94 2080.48 2174.21C2075.14 2183.41 2065.56 2194.85 2051.73 2208.55L2016.86 2242.99V2243.41H2087.12V2259Z" fill="black"/>
<path d="M2087.12 2259H1996.11V2243.62L2040.14 2199.49C2051.37 2188.25 2059.38 2178.92 2064.15 2171.47C2069 2163.96 2071.42 2155.95 2071.42 2147.46C2071.42 2138.75 2068.93 2132.01 2063.94 2127.23C2058.96 2122.46 2051.87 2120.07 2042.67 2120.07C2029.18 2120.07 2016.26 2125.83 2003.91 2137.35V2119.23C2015.7 2110.03 2029.43 2105.43 2045.09 2105.43C2058.57 2105.43 2069.17 2109.08 2076.9 2116.38C2084.62 2123.69 2088.48 2133.48 2088.48 2145.77C2088.48 2155.46 2085.82 2164.94 2080.48 2174.21C2075.14 2183.41 2065.56 2194.85 2051.73 2208.55L2016.86 2242.99V2243.41H2087.12V2259Z" fill="url(#paint0_linear)"/>
<path d="M2204.25 2261.53C2189.29 2261.53 2177.6 2255.1 2169.18 2242.25C2160.82 2229.4 2156.64 2210.83 2156.64 2186.53C2156.64 2159.85 2160.99 2139.66 2169.7 2125.97C2178.48 2112.28 2191.12 2105.43 2207.62 2105.43C2239.22 2105.43 2255.02 2131.24 2255.02 2182.85C2255.02 2208.41 2250.56 2227.93 2241.64 2241.41C2232.72 2254.82 2220.26 2261.53 2204.25 2261.53ZM2206.67 2120.07C2185.11 2120.07 2174.34 2141.94 2174.34 2185.69C2174.34 2226.56 2184.9 2246.99 2206.04 2246.99C2226.9 2246.99 2237.32 2226.21 2237.32 2184.64C2237.32 2141.59 2227.11 2120.07 2206.67 2120.07Z" fill="black"/>
<path d="M2204.25 2261.53C2189.29 2261.53 2177.6 2255.1 2169.18 2242.25C2160.82 2229.4 2156.64 2210.83 2156.64 2186.53C2156.64 2159.85 2160.99 2139.66 2169.7 2125.97C2178.48 2112.28 2191.12 2105.43 2207.62 2105.43C2239.22 2105.43 2255.02 2131.24 2255.02 2182.85C2255.02 2208.41 2250.56 2227.93 2241.64 2241.41C2232.72 2254.82 2220.26 2261.53 2204.25 2261.53ZM2206.67 2120.07C2185.11 2120.07 2174.34 2141.94 2174.34 2185.69C2174.34 2226.56 2184.9 2246.99 2206.04 2246.99C2226.9 2246.99 2237.32 2226.21 2237.32 2184.64C2237.32 2141.59 2227.11 2120.07 2206.67 2120.07Z" fill="url(#paint1_linear)"/>
<path d="M2410.28 2259H2319.28V2243.62L2363.3 2199.49C2374.54 2188.25 2382.54 2178.92 2387.32 2171.47C2392.16 2163.96 2394.59 2155.95 2394.59 2147.46C2394.59 2138.75 2392.09 2132.01 2387.11 2127.23C2382.12 2122.46 2375.03 2120.07 2365.83 2120.07C2352.35 2120.07 2339.43 2125.83 2327.07 2137.35V2119.23C2338.87 2110.03 2352.6 2105.43 2368.25 2105.43C2381.74 2105.43 2392.34 2109.08 2400.06 2116.38C2407.79 2123.69 2411.65 2133.48 2411.65 2145.77C2411.65 2155.46 2408.98 2164.94 2403.65 2174.21C2398.31 2183.41 2388.72 2194.85 2374.89 2208.55L2340.03 2242.99V2243.41H2410.28V2259Z" fill="black"/>
<path d="M2410.28 2259H2319.28V2243.62L2363.3 2199.49C2374.54 2188.25 2382.54 2178.92 2387.32 2171.47C2392.16 2163.96 2394.59 2155.95 2394.59 2147.46C2394.59 2138.75 2392.09 2132.01 2387.11 2127.23C2382.12 2122.46 2375.03 2120.07 2365.83 2120.07C2352.35 2120.07 2339.43 2125.83 2327.07 2137.35V2119.23C2338.87 2110.03 2352.6 2105.43 2368.25 2105.43C2381.74 2105.43 2392.34 2109.08 2400.06 2116.38C2407.79 2123.69 2411.65 2133.48 2411.65 2145.77C2411.65 2155.46 2408.98 2164.94 2403.65 2174.21C2398.31 2183.41 2388.72 2194.85 2374.89 2208.55L2340.03 2242.99V2243.41H2410.28V2259Z" fill="url(#paint2_linear)"/>
<path d="M2574.71 2259H2489.29V2243.83H2523.41V2126.5L2488.44 2136.92V2120.49L2540.69 2104.59V2243.83H2574.71V2259Z" fill="black"/>
<path d="M2574.71 2259H2489.29V2243.83H2523.41V2126.5L2488.44 2136.92V2120.49L2540.69 2104.59V2243.83H2574.71V2259Z" fill="url(#paint3_linear)"/>
<path d="M1865.82 2507H1832.52L1822.87 2476.82H1774.61L1765.06 2507H1731.95L1781.33 2371.33H1817.57L1865.82 2507ZM1815.86 2453.36L1801.29 2407.76C1800.22 2404.35 1799.47 2400.28 1799.02 2395.55H1798.27C1797.95 2399.52 1797.16 2403.47 1795.9 2407.38L1781.14 2453.36H1815.86Z" fill="black"/>
<path d="M1865.82 2507H1832.52L1822.87 2476.82H1774.61L1765.06 2507H1731.95L1781.33 2371.33H1817.57L1865.82 2507ZM1815.86 2453.36L1801.29 2407.76C1800.22 2404.35 1799.47 2400.28 1799.02 2395.55H1798.27C1797.95 2399.52 1797.16 2403.47 1795.9 2407.38L1781.14 2453.36H1815.86Z" fill="url(#paint4_linear)"/>
<path d="M2020.3 2507H1989.46L1933.54 2421.76C1930.26 2416.77 1927.99 2413.02 1926.73 2410.5H1926.35C1926.86 2415.29 1927.11 2422.61 1927.11 2432.45V2507H1898.25V2371.33H1931.18L1985.01 2453.92C1987.47 2457.65 1989.74 2461.34 1991.82 2464.99H1992.2C1991.7 2461.84 1991.44 2455.63 1991.44 2446.36V2371.33H2020.3V2507Z" fill="black"/>
<path d="M2020.3 2507H1989.46L1933.54 2421.76C1930.26 2416.77 1927.99 2413.02 1926.73 2410.5H1926.35C1926.86 2415.29 1927.11 2422.61 1927.11 2432.45V2507H1898.25V2371.33H1931.18L1985.01 2453.92C1987.47 2457.65 1989.74 2461.34 1991.82 2464.99H1992.2C1991.7 2461.84 1991.44 2455.63 1991.44 2446.36V2371.33H2020.3V2507Z" fill="url(#paint5_linear)"/>
<path d="M2186.13 2507H2152.83L2143.18 2476.82H2094.93L2085.38 2507H2052.26L2101.65 2371.33H2137.88L2186.13 2507ZM2136.18 2453.36L2121.61 2407.76C2120.54 2404.35 2119.78 2400.28 2119.34 2395.55H2118.58C2118.27 2399.52 2117.48 2403.47 2116.22 2407.38L2101.46 2453.36H2136.18Z" fill="black"/>
<path d="M2186.13 2507H2152.83L2143.18 2476.82H2094.93L2085.38 2507H2052.26L2101.65 2371.33H2137.88L2186.13 2507ZM2136.18 2453.36L2121.61 2407.76C2120.54 2404.35 2119.78 2400.28 2119.34 2395.55H2118.58C2118.27 2399.52 2117.48 2403.47 2116.22 2407.38L2101.46 2453.36H2136.18Z" fill="url(#paint6_linear)"/>
<path d="M2340.62 2507H2309.77L2253.86 2421.76C2250.58 2416.77 2248.31 2413.02 2247.05 2410.5H2246.67C2247.17 2415.29 2247.43 2422.61 2247.43 2432.45V2507H2218.57V2371.33H2251.49L2305.33 2453.92C2307.79 2457.65 2310.06 2461.34 2312.14 2464.99H2312.52C2312.01 2461.84 2311.76 2455.63 2311.76 2446.36V2371.33H2340.62V2507Z" fill="black"/>
<path d="M2340.62 2507H2309.77L2253.86 2421.76C2250.58 2416.77 2248.31 2413.02 2247.05 2410.5H2246.67C2247.17 2415.29 2247.43 2422.61 2247.43 2432.45V2507H2218.57V2371.33H2251.49L2305.33 2453.92C2307.79 2457.65 2310.06 2461.34 2312.14 2464.99H2312.52C2312.01 2461.84 2311.76 2455.63 2311.76 2446.36V2371.33H2340.62V2507Z" fill="url(#paint7_linear)"/>
<path d="M2482.42 2396.21H2443.72V2507H2413.07V2396.21H2374.57V2371.33H2482.42V2396.21Z" fill="black"/>
<path d="M2482.42 2396.21H2443.72V2507H2413.07V2396.21H2374.57V2371.33H2482.42V2396.21Z" fill="url(#paint8_linear)"/>
<path d="M2618.45 2371.33L2574.27 2458.75V2507H2543.71V2459.32L2500.66 2371.33H2535.58L2557.43 2421.95C2557.81 2422.89 2558.85 2426.58 2560.55 2433.02H2560.93C2561.75 2428.47 2562.73 2424.91 2563.86 2422.32L2586.1 2371.33H2618.45Z" fill="black"/>
<path d="M2618.45 2371.33L2574.27 2458.75V2507H2543.71V2459.32L2500.66 2371.33H2535.58L2557.43 2421.95C2557.81 2422.89 2558.85 2426.58 2560.55 2433.02H2560.93C2561.75 2428.47 2562.73 2424.91 2563.86 2422.32L2586.1 2371.33H2618.45Z" fill="url(#paint9_linear)"/>
<path d="M2768.68 2507H2735.37L2725.72 2476.82H2677.47L2667.92 2507H2634.81L2684.19 2371.33H2720.43L2768.68 2507ZM2718.72 2453.36L2704.15 2407.76C2703.08 2404.35 2702.32 2400.28 2701.88 2395.55H2701.13C2700.81 2399.52 2700.02 2403.47 2698.76 2407.38L2684 2453.36H2718.72Z" fill="black"/>
<path d="M2768.68 2507H2735.37L2725.72 2476.82H2677.47L2667.92 2507H2634.81L2684.19 2371.33H2720.43L2768.68 2507ZM2718.72 2453.36L2704.15 2407.76C2703.08 2404.35 2702.32 2400.28 2701.88 2395.55H2701.13C2700.81 2399.52 2700.02 2403.47 2698.76 2407.38L2684 2453.36H2718.72Z" fill="url(#paint10_linear)"/>
<g filter="url(#filter0_f)">
<path d="M1676.81 372.526C1454.79 283.887 1210.31 259.836 971.743 345.998C484.742 521.881 142.547 980.484 34.9257 1463.89C-18.8847 1705.59 -11.5098 1970.16 110.262 2196.1C232.034 2422.03 464.677 2573.71 747.915 2612.58L749.998 2136.51C578.162 2112.93 579.825 1968.39 545.484 1904.68C511.144 1840.96 497.273 1736.9 527.708 1600.19C588.578 1326.78 836.947 989.518 1128.25 884.312C1177.3 866.597 1227.86 857.667 1279.96 857.249C1391.89 685.852 1529.51 516.627 1676.81 372.526Z" fill="#550022"/>
<path d="M4162.83 2304.15C4325.81 2156.7 4423.09 1794.46 4378 1497.5C4063.93 1814.65 3591.19 1968.78 3240.35 1790.05C2968.52 1642.39 2687.5 1362.88 2514.89 1105.12C2336.03 838.04 2108.82 605.08 1845.99 454.503C1583.16 303.925 1272.74 237.288 971.751 345.993C484.75 521.876 142.552 980.487 34.9308 1463.89C-18.8798 1705.59 -11.5111 1970.17 110.26 2196.1C232.032 2422.04 464.684 2573.71 747.922 2612.57L750.001 2136.52C578.165 2112.94 579.827 1968.39 545.487 1904.68C511.146 1840.96 497.273 1736.89 527.708 1600.19C588.578 1326.78 836.952 989.522 1128.25 884.316C1276.1 830.922 1437.6 856.783 1613.88 957.775C1790.15 1058.77 1969.25 1236.42 2108 1443.6C2329.21 1773.93 2650.32 2099.05 3017.9 2298.73C3385.48 2498.4 3895.57 2559.68 4162.83 2304.15L4162.83 2304.15Z" fill="url(#paint11_linear)"/>
<path d="M4389 1640.41C4388.61 1591.89 4385.05 1543.9 4378 1497.5C4063.93 1814.65 3591.19 1968.78 3240.35 1790.04C2968.52 1642.38 2687.5 1362.87 2514.89 1105.12C2336.03 838.034 2108.81 605.075 1845.98 454.497C1583.16 303.92 1272.74 237.29 971.743 345.995C484.742 521.878 142.547 980.481 34.9259 1463.88C7.62755 1586.5 -3.8827 1715.01 7.2589 1841.37C11.8404 1812.05 17.3536 1782.95 23.7589 1754.18C131.38 1270.78 473.575 812.178 960.576 636.294C1261.57 527.589 1571.99 594.219 1834.82 744.797C2097.64 895.375 2324.86 1128.33 2503.72 1395.42C3091.08 2384.72 4162.83 2304.15 4373.27 1840.66C4384.01 1774.76 4389.53 1707.1 4389 1640.41ZM749.999 2136.51C578.163 2112.93 579.826 1968.39 545.485 1904.67C537.661 1890.16 530.967 1873.44 525.549 1854.82C522.247 1866.8 519.161 1878.72 516.541 1890.49C486.106 2027.19 499.977 2131.26 534.318 2194.97C568.659 2258.69 566.995 2403.24 738.831 2426.82L738.025 2611.08C741.327 2611.57 744.6 2612.12 747.916 2612.57L749.999 2136.51Z" fill="url(#paint12_linear)"/>
<path d="M2744.62 1391.88C2657.21 1298.48 2578.65 1200.32 2514.89 1105.12C2455.85 1016.96 2391.5 932.555 2322.39 853.564C2214.21 1007.3 2102.29 1142.66 1972.17 1265C2020.34 1320.97 2066.02 1380.93 2107.99 1443.61C2184.85 1558.38 2273.81 1672.51 2372.55 1780.99C2489.17 1630.57 2609.41 1490.26 2744.62 1391.88Z" fill="url(#paint13_linear)"/>
<path d="M1785.24 1311.8C1600.4 1527.24 1424.84 1773.55 1258.42 1910.75C1092.01 2047.95 858.281 2091.45 714.184 2071.68L747.915 2612.57C1058.89 2655.24 1335.04 2514.31 1558.37 2330.18C1781.7 2146.06 1971.53 1913.44 2152.19 1702.89C2332.84 1492.34 2500.73 1296.37 2653.5 1207.95C2804.07 1120.8 3143.49 952.426 3567.29 1363.54C3723.49 193.774 2282.67 732.351 1785.24 1311.8Z" fill="url(#paint14_linear)"/>
<path d="M3582.18 1201.46C3583.18 957.28 3478.86 708.856 3234.51 586.899C3123.76 515.573 2790.16 461.067 2393.21 725.31C2159.81 880.681 1967.88 1101.05 1783.03 1316.49C1598.18 1531.92 1420.65 1742.72 1254.24 1879.92C1087.83 2017.12 858.287 2091.46 714.189 2071.68L732.936 2396.35C877.4 2412.61 1101.86 2338.56 1265.4 2203.72C1431.82 2066.52 1609.35 1855.72 1794.2 1640.28C1979.05 1424.84 2170.98 1204.48 2404.38 1049.11C2801.33 784.863 3134.93 839.368 3245.67 910.695C3425.42 1000.4 3528.74 1158.87 3570.76 1333.42C3577.67 1290.19 3582 1245.75 3582.18 1201.46Z" fill="url(#paint15_linear)"/>
<path d="M1452.32 307.781C1252.83 279.503 1104.19 295.002 971.742 345.984C487.855 532.238 142.545 980.478 34.9232 1463.88C-18.8873 1705.58 -11.5196 1970.16 110.252 2196.1C232.024 2422.03 464.673 2573.7 747.911 2612.56C1024 2665.03 1333.14 2503.82 1454.18 2409.78C168.647 2109.64 625.213 1223.45 1452.32 307.781H1452.32Z" fill="url(#paint16_linear)"/>
<path d="M1454.19 2409.78C168.657 2109.64 625.216 1223.45 1452.32 307.789C1339.09 291.739 1242.26 289.819 1155.45 300.462C390.266 1280.83 12.7447 2209.56 1233.18 2536.7C1327.44 2495.6 1405.85 2447.34 1454.19 2409.78Z" fill="url(#paint17_linear)"/>
</g>
<defs>
<filter id="filter0_f" x="0.775977" y="290.105" width="4390.49" height="2334.94" filterUnits="userSpaceOnUse" color-interpolation-filters="sRGB">
<feFlood flood-opacity="0" result="BackgroundImageFix"/>
<feBlend mode="normal" in="SourceGraphic" in2="BackgroundImageFix" result="shape"/>
<feGaussianBlur stdDeviation="1.1125" result="effect1_foregroundBlur"/>
</filter>
<linearGradient id="paint0_linear" x1="2332.88" y1="2059" x2="1986" y2="2059" gradientUnits="userSpaceOnUse">
<stop stop-color="#AE0F55"/>
<stop offset="1" stop-color="#741A6C"/>
</linearGradient>
<linearGradient id="paint1_linear" x1="2332.88" y1="2059" x2="1986" y2="2059" gradientUnits="userSpaceOnUse">
<stop stop-color="#AE0F55"/>
<stop offset="1" stop-color="#741A6C"/>
</linearGradient>
<linearGradient id="paint2_linear" x1="2332.88" y1="2059" x2="1986" y2="2059" gradientUnits="userSpaceOnUse">
<stop stop-color="#AE0F55"/>
<stop offset="1" stop-color="#741A6C"/>
</linearGradient>
<linearGradient id="paint3_linear" x1="2332.88" y1="2059" x2="1986" y2="2059" gradientUnits="userSpaceOnUse">
<stop stop-color="#AE0F55"/>
<stop offset="1" stop-color="#741A6C"/>
</linearGradient>
<linearGradient id="paint4_linear" x1="2312.48" y1="2328" x2="1707.27" y2="2328" gradientUnits="userSpaceOnUse">
<stop stop-color="#CA0246"/>
<stop offset="1" stop-color="#93115E"/>
</linearGradient>
<linearGradient id="paint5_linear" x1="2312.48" y1="2328" x2="1707.27" y2="2328" gradientUnits="userSpaceOnUse">
<stop stop-color="#CA0246"/>
<stop offset="1" stop-color="#93115E"/>
</linearGradient>
<linearGradient id="paint6_linear" x1="2312.48" y1="2328" x2="1707.27" y2="2328" gradientUnits="userSpaceOnUse">
<stop stop-color="#CA0246"/>
<stop offset="1" stop-color="#93115E"/>
</linearGradient>
<linearGradient id="paint7_linear" x1="2312.48" y1="2328" x2="1707.27" y2="2328" gradientUnits="userSpaceOnUse">
<stop stop-color="#CA0246"/>
<stop offset="1" stop-color="#93115E"/>
</linearGradient>
<linearGradient id="paint8_linear" x1="2312.48" y1="2328" x2="1707.27" y2="2328" gradientUnits="userSpaceOnUse">
<stop stop-color="#CA0246"/>
<stop offset="1" stop-color="#93115E"/>
</linearGradient>
<linearGradient id="paint9_linear" x1="2312.48" y1="2328" x2="1707.27" y2="2328" gradientUnits="userSpaceOnUse">
<stop stop-color="#CA0246"/>
<stop offset="1" stop-color="#93115E"/>
</linearGradient>
<linearGradient id="paint10_linear" x1="2312.48" y1="2328" x2="1707.27" y2="2328" gradientUnits="userSpaceOnUse">
<stop stop-color="#CA0246"/>
<stop offset="1" stop-color="#93115E"/>
</linearGradient>
<linearGradient id="paint11_linear" x1="1528.75" y1="748.006" x2="2217.41" y2="1155.06" gradientUnits="userSpaceOnUse">
<stop stop-color="#0B1728"/>
<stop offset="1" stop-color="#3737C8"/>
</linearGradient>
<linearGradient id="paint12_linear" x1="4067.51" y1="3205.62" x2="1912.27" y2="235.777" gradientUnits="userSpaceOnUse">
<stop stop-color="#0000AA"/>
<stop offset="1" stop-color="#440055"/>
</linearGradient>
<linearGradient id="paint13_linear" x1="2437.36" y1="1404.25" x2="2551.84" y2="1522.44" gradientUnits="userSpaceOnUse">
<stop stop-color="#0B0000" stop-opacity="0.713592"/>
<stop offset="1" stop-color="#3737C8" stop-opacity="0"/>
</linearGradient>
<linearGradient id="paint14_linear" x1="1288.93" y1="2254.43" x2="3128.8" y2="1235.36" gradientUnits="userSpaceOnUse">
<stop stop-color="#FF0000"/>
<stop offset="1" stop-color="#FFCC00"/>
</linearGradient>
<linearGradient id="paint15_linear" x1="2898.23" y1="1021.23" x2="733.163" y2="2396.71" gradientUnits="userSpaceOnUse">
<stop stop-color="#002B11"/>
<stop offset="1" stop-color="#CCFF00"/>
</linearGradient>
<linearGradient id="paint16_linear" x1="754.103" y1="373.979" x2="360.811" y2="1944.92" gradientUnits="userSpaceOnUse">
<stop stop-color="#D00043"/>
<stop offset="1" stop-color="#572279"/>
</linearGradient>
<linearGradient id="paint17_linear" x1="1279.96" y1="857.247" x2="579.02" y2="2263.37" gradientUnits="userSpaceOnUse">
<stop stop-color="#800033" stop-opacity="0.941176"/>
<stop offset="1" stop-color="#441650"/>
</linearGradient>
</defs>
</svg>
