<svg width="571" height="256" viewBox="0 0 571 256" fill="none" xmlns="http://www.w3.org/2000/svg">
<path d="M450 15C450 6.71573 456.716 0 465 0H555C563.284 0 570 6.71573 570 15V18H450V15Z" fill="white"/>
<path d="M450 66C450 57.7157 456.716 51 465 51H555C563.284 51 570 57.7157 570 66V69H450V66Z" fill="white"/>
<path d="M450 66C450 57.7157 456.716 51 465 51H468V120H465C456.716 120 450 113.284 450 105V66Z" fill="white"/>
<path d="M552 51H555C563.284 51 570 57.7157 570 66V105C570 113.284 563.284 120 555 120H552V51Z" fill="white"/>
<path d="M0 15C0 6.71573 6.71573 0 15 0H105C113.284 0 120 6.71573 120 15V18H0V15Z" fill="white"/>
<path d="M0 40H3C11.2843 40 18 46.7157 18 55V65C18 73.2843 11.2843 80 3 80H0V40Z" fill="white"/>
<path d="M0 102H120V105C120 113.284 113.284 120 105 120H15C6.71573 120 0 113.284 0 105V102Z" fill="white"/>
<path d="M150 15C150 6.71573 156.716 0 165 0H255C263.284 0 270 6.71573 270 15V18H150V15Z" fill="white"/>
<path d="M168 51H200.5C204.642 51 208 54.3579 208 58.5V61.5C208 65.6421 204.642 69 200.5 69H168V51Z" fill="white"/>
<path d="M150 102H270V105C270 113.284 263.284 120 255 120H165C156.716 120 150 113.284 150 105V102Z" fill="white"/>
<path d="M300 15C300 6.71573 306.716 0 315 0H405C413.284 0 420 6.71573 420 15V18H300V15Z" fill="white"/>
<path d="M340 51H365C373.284 51 380 57.7157 380 66V69H355C346.716 69 340 62.2843 340 54V51Z" fill="white"/>
<path d="M300 15C300 6.71573 306.716 0 315 0H318V60H315C306.716 60 300 53.2843 300 45V15Z" fill="white"/>
<path d="M402 60H405C413.284 60 420 66.7157 420 75V105C420 113.284 413.284 120 405 120H402V60Z" fill="white"/>
<path d="M300 102H420V105C420 113.284 413.284 120 405 120H315C306.716 120 300 113.284 300 105V102Z" fill="white"/>
<path d="M4.49219 156.995C4.49219 156.312 4.6224 155.669 4.88281 155.066C5.14323 154.448 5.5013 153.919 5.95703 153.479C6.41276 153.024 6.94173 152.666 7.54395 152.405C8.16243 152.129 8.81348 151.99 9.49707 151.99H28.4912C29.1748 151.99 29.8177 152.129 30.4199 152.405C31.0384 152.666 31.5755 153.024 32.0312 153.479C32.487 153.919 32.8451 154.448 33.1055 155.066C33.3659 155.669 33.4961 156.312 33.4961 156.995V161.512H28.4912V156.995H9.49707V181.995H28.4912V177.503H33.4961V181.995C33.4961 182.679 33.3659 183.33 33.1055 183.948C32.8451 184.55 32.487 185.079 32.0312 185.535C31.5755 185.991 31.0384 186.349 30.4199 186.609C29.8177 186.87 29.1748 187 28.4912 187H9.49707C8.81348 187 8.16243 186.87 7.54395 186.609C6.94173 186.349 6.41276 185.991 5.95703 185.535C5.5013 185.079 5.14323 184.55 4.88281 183.948C4.6224 183.33 4.49219 182.679 4.49219 181.995V156.995ZM63.501 182.19C63.501 182.858 63.3708 183.484 63.1104 184.07C62.8662 184.656 62.5244 185.169 62.085 185.608C61.6618 186.032 61.1572 186.373 60.5713 186.634C60.0016 186.878 59.3831 187 58.7158 187H45.8008C45.1497 187 44.5312 186.878 43.9453 186.634C43.3594 186.373 42.8467 186.032 42.4072 185.608C41.984 185.169 41.6423 184.656 41.3818 184.07C41.1377 183.484 41.0156 182.858 41.0156 182.19V165.809C41.0156 165.141 41.1377 164.515 41.3818 163.929C41.6423 163.343 41.984 162.838 42.4072 162.415C42.8467 161.976 43.3594 161.634 43.9453 161.39C44.5312 161.129 45.1497 160.999 45.8008 160.999H58.7158C59.3831 160.999 60.0016 161.129 60.5713 161.39C61.1572 161.634 61.6618 161.976 62.085 162.415C62.5244 162.838 62.8662 163.343 63.1104 163.929C63.3708 164.515 63.501 165.141 63.501 165.809V182.19ZM45.8008 165.809V182.19H58.7158V165.809H45.8008ZM92.1387 165.809V187H87.3291V165.809H76.3184V187H71.5332V160.999H76.3184V165.589C76.3509 164.954 76.4974 164.36 76.7578 163.807C77.0182 163.237 77.36 162.749 77.7832 162.342C78.2227 161.919 78.7272 161.593 79.2969 161.365C79.8665 161.121 80.4769 160.999 81.1279 160.999H87.3291C87.9639 160.999 88.5661 161.121 89.1357 161.365C89.7054 161.593 90.21 161.919 90.6494 162.342C91.0889 162.749 91.4388 163.237 91.6992 163.807C91.9759 164.36 92.1224 164.954 92.1387 165.589C92.1712 164.954 92.3096 164.36 92.5537 163.807C92.8141 163.237 93.1559 162.749 93.5791 162.342C94.0186 161.919 94.5231 161.593 95.0928 161.365C95.6624 161.121 96.2728 160.999 96.9238 160.999H103.125C103.792 160.999 104.419 161.129 105.005 161.39C105.591 161.634 106.095 161.976 106.519 162.415C106.958 162.838 107.3 163.343 107.544 163.929C107.804 164.515 107.935 165.141 107.935 165.809V187H103.125V165.809H92.1387ZM138.965 182.19C138.965 182.858 138.835 183.484 138.574 184.07C138.33 184.656 137.988 185.169 137.549 185.608C137.126 186.032 136.621 186.373 136.035 186.634C135.449 186.878 134.823 187 134.155 187H120.752V197.498H115.967V160.999H120.752V165.394C120.801 164.775 120.964 164.205 121.24 163.685C121.517 163.147 121.867 162.684 122.29 162.293C122.713 161.886 123.201 161.569 123.755 161.341C124.325 161.113 124.927 160.999 125.562 160.999H134.155C134.823 160.999 135.449 161.129 136.035 161.39C136.621 161.634 137.126 161.976 137.549 162.415C137.988 162.838 138.33 163.343 138.574 163.929C138.835 164.515 138.965 165.141 138.965 165.809V182.19ZM134.155 182.19V165.809H120.752V182.19H134.155ZM146.973 160.999H151.758V182.19H165.161V160.999H169.971V187H165.161V182.605C165.112 183.208 164.95 183.777 164.673 184.314C164.396 184.852 164.038 185.324 163.599 185.73C163.175 186.121 162.687 186.43 162.134 186.658C161.58 186.886 160.994 187 160.376 187H151.758C151.107 187 150.488 186.878 149.902 186.634C149.316 186.373 148.804 186.032 148.364 185.608C147.941 185.169 147.599 184.656 147.339 184.07C147.095 183.484 146.973 182.858 146.973 182.19V160.999ZM176.465 160.999H182.812V152.991H187.622V160.999H196.167V165.809H187.622V182.19H196.167V187H187.622C186.971 187 186.353 186.878 185.767 186.634C185.181 186.373 184.668 186.032 184.229 185.608C183.789 185.169 183.439 184.656 183.179 184.07C182.935 183.484 182.812 182.858 182.812 182.19V165.809H176.465V160.999ZM226.196 176.453H208.984V182.19H226.196V187H208.984C208.333 187 207.715 186.878 207.129 186.634C206.543 186.373 206.03 186.032 205.591 185.608C205.168 185.169 204.826 184.656 204.565 184.07C204.321 183.484 204.199 182.858 204.199 182.19V165.809C204.199 165.141 204.321 164.515 204.565 163.929C204.826 163.343 205.168 162.838 205.591 162.415C206.03 161.976 206.543 161.634 207.129 161.39C207.715 161.129 208.333 160.999 208.984 160.999H221.387C222.054 160.999 222.681 161.129 223.267 161.39C223.853 161.634 224.357 161.976 224.78 162.415C225.22 162.838 225.562 163.343 225.806 163.929C226.066 164.515 226.196 165.141 226.196 165.809V176.453ZM208.984 165.809V171.644H221.387V165.809H208.984ZM239.014 165.809V187H234.229V160.999H239.014V165.589C239.046 164.954 239.193 164.36 239.453 163.807C239.714 163.237 240.055 162.749 240.479 162.342C240.918 161.919 241.423 161.593 241.992 161.365C242.562 161.121 243.172 160.999 243.823 160.999H248.926C249.593 160.999 250.212 161.129 250.781 161.39C251.367 161.634 251.88 161.976 252.319 162.415C252.759 162.838 253.101 163.343 253.345 163.929C253.605 164.515 253.735 165.141 253.735 165.809V170.203H248.926V165.809H239.014ZM275.195 151.99H300.708V156.995H280.2V167.005H297.705V172.01H280.2V181.995H300.708V187H275.195V151.99ZM330.713 187H325.903V165.809H312.5V187H307.715V160.999H312.5V165.589C312.533 164.954 312.679 164.36 312.939 163.807C313.2 163.237 313.542 162.749 313.965 162.342C314.404 161.919 314.909 161.593 315.479 161.365C316.048 161.121 316.659 160.999 317.31 160.999H325.903C326.571 160.999 327.197 161.129 327.783 161.39C328.369 161.634 328.874 161.976 329.297 162.415C329.736 162.838 330.078 163.343 330.322 163.929C330.583 164.515 330.713 165.141 330.713 165.809V187ZM338.721 165.809C338.721 165.141 338.843 164.515 339.087 163.929C339.347 163.343 339.689 162.838 340.112 162.415C340.552 161.976 341.064 161.634 341.65 161.39C342.236 161.129 342.855 160.999 343.506 160.999H352.124C352.759 160.999 353.361 161.121 353.931 161.365C354.5 161.593 354.997 161.919 355.42 162.342C355.859 162.749 356.209 163.237 356.47 163.807C356.746 164.36 356.893 164.954 356.909 165.589V160.999H361.719V192.688C361.719 193.356 361.589 193.982 361.328 194.568C361.084 195.154 360.742 195.659 360.303 196.082C359.88 196.521 359.375 196.863 358.789 197.107C358.203 197.368 357.576 197.498 356.909 197.498H341.724V192.688H356.909V185.999H343.506C342.855 185.999 342.236 185.877 341.65 185.633C341.064 185.372 340.552 185.031 340.112 184.607C339.689 184.168 339.347 183.655 339.087 183.069C338.843 182.483 338.721 181.857 338.721 181.189V165.809ZM356.909 181.189V165.809H343.506V181.189H356.909ZM374.78 160.999V187H369.971V160.999H374.78ZM369.727 150.989H375.024V155.994H369.727V150.989ZM406.055 187H401.245V165.809H387.842V187H383.057V160.999H387.842V165.589C387.874 164.954 388.021 164.36 388.281 163.807C388.542 163.237 388.883 162.749 389.307 162.342C389.746 161.919 390.251 161.593 390.82 161.365C391.39 161.121 392 160.999 392.651 160.999H401.245C401.912 160.999 402.539 161.129 403.125 161.39C403.711 161.634 404.215 161.976 404.639 162.415C405.078 162.838 405.42 163.343 405.664 163.929C405.924 164.515 406.055 165.141 406.055 165.809V187ZM436.06 176.453H418.848V182.19H436.06V187H418.848C418.197 187 417.578 186.878 416.992 186.634C416.406 186.373 415.894 186.032 415.454 185.608C415.031 185.169 414.689 184.656 414.429 184.07C414.185 183.484 414.062 182.858 414.062 182.19V165.809C414.062 165.141 414.185 164.515 414.429 163.929C414.689 163.343 415.031 162.838 415.454 162.415C415.894 161.976 416.406 161.634 416.992 161.39C417.578 161.129 418.197 160.999 418.848 160.999H431.25C431.917 160.999 432.544 161.129 433.13 161.39C433.716 161.634 434.22 161.976 434.644 162.415C435.083 162.838 435.425 163.343 435.669 163.929C435.929 164.515 436.06 165.141 436.06 165.809V176.453ZM418.848 165.809V171.644H431.25V165.809H418.848ZM466.089 176.453H448.877V182.19H466.089V187H448.877C448.226 187 447.607 186.878 447.021 186.634C446.436 186.373 445.923 186.032 445.483 185.608C445.06 185.169 444.718 184.656 444.458 184.07C444.214 183.484 444.092 182.858 444.092 182.19V165.809C444.092 165.141 444.214 164.515 444.458 163.929C444.718 163.343 445.06 162.838 445.483 162.415C445.923 161.976 446.436 161.634 447.021 161.39C447.607 161.129 448.226 160.999 448.877 160.999H461.279C461.947 160.999 462.573 161.129 463.159 161.39C463.745 161.634 464.25 161.976 464.673 162.415C465.112 162.838 465.454 163.343 465.698 163.929C465.959 164.515 466.089 165.141 466.089 165.809V176.453ZM448.877 165.809V171.644H461.279V165.809H448.877ZM478.906 165.809V187H474.121V160.999H478.906V165.589C478.939 164.954 479.085 164.36 479.346 163.807C479.606 163.237 479.948 162.749 480.371 162.342C480.811 161.919 481.315 161.593 481.885 161.365C482.454 161.121 483.065 160.999 483.716 160.999H488.818C489.486 160.999 490.104 161.129 490.674 161.39C491.26 161.634 491.772 161.976 492.212 162.415C492.651 162.838 492.993 163.343 493.237 163.929C493.498 164.515 493.628 165.141 493.628 165.809V170.203H488.818V165.809H478.906ZM504.663 160.999V187H499.854V160.999H504.663ZM499.609 150.989H504.907V155.994H499.609V150.989ZM535.938 187H531.128V165.809H517.725V187H512.939V160.999H517.725V165.589C517.757 164.954 517.904 164.36 518.164 163.807C518.424 163.237 518.766 162.749 519.189 162.342C519.629 161.919 520.133 161.593 520.703 161.365C521.273 161.121 521.883 160.999 522.534 160.999H531.128C531.795 160.999 532.422 161.129 533.008 161.39C533.594 161.634 534.098 161.976 534.521 162.415C534.961 162.838 535.303 163.343 535.547 163.929C535.807 164.515 535.938 165.141 535.938 165.809V187ZM543.945 165.809C543.945 165.141 544.067 164.515 544.312 163.929C544.572 163.343 544.914 162.838 545.337 162.415C545.776 161.976 546.289 161.634 546.875 161.39C547.461 161.129 548.079 160.999 548.73 160.999H557.349C557.983 160.999 558.586 161.121 559.155 161.365C559.725 161.593 560.221 161.919 560.645 162.342C561.084 162.749 561.434 163.237 561.694 163.807C561.971 164.36 562.118 164.954 562.134 165.589V160.999H566.943V192.688C566.943 193.356 566.813 193.982 566.553 194.568C566.309 195.154 565.967 195.659 565.527 196.082C565.104 196.521 564.6 196.863 564.014 197.107C563.428 197.368 562.801 197.498 562.134 197.498H546.948V192.688H562.134V185.999H548.73C548.079 185.999 547.461 185.877 546.875 185.633C546.289 185.372 545.776 185.031 545.337 184.607C544.914 184.168 544.572 183.655 544.312 183.069C544.067 182.483 543.945 181.857 543.945 181.189V165.809ZM562.134 181.189V165.809H548.73V181.189H562.134Z" fill="white"/>
<path d="M43.1172 225.609C42.4609 225.609 41.8359 225.484 41.2422 225.234C40.6641 224.969 40.1562 224.625 39.7188 224.203C39.2812 223.766 38.9375 223.258 38.6875 222.68C38.4375 222.086 38.3125 221.461 38.3125 220.805V211.195C38.3125 210.539 38.4375 209.922 38.6875 209.344C38.9375 208.75 39.2812 208.242 39.7188 207.82C40.1562 207.383 40.6641 207.039 41.2422 206.789C41.8359 206.523 42.4609 206.391 43.1172 206.391H59.4297C60.0859 206.391 60.7031 206.523 61.2812 206.789C61.875 207.039 62.3906 207.383 62.8281 207.82C63.2656 208.242 63.6094 208.75 63.8594 209.344C64.1094 209.922 64.2344 210.539 64.2344 211.195V215.531H59.4297V211.195H43.1172V220.805H59.4297C60.0859 220.805 60.7031 220.93 61.2812 221.18C61.875 221.43 62.3906 221.773 62.8281 222.211C63.2656 222.648 63.6094 223.164 63.8594 223.758C64.1094 224.336 64.2344 224.953 64.2344 225.609V235.195C64.2344 235.852 64.1094 236.477 63.8594 237.07C63.6094 237.648 63.2656 238.156 62.8281 238.594C62.3906 239.031 61.875 239.375 61.2812 239.625C60.7031 239.875 60.0859 240 59.4297 240H42.6484C41.9922 240 41.3672 239.875 40.7734 239.625C40.1953 239.375 39.6875 239.031 39.25 238.594C38.8125 238.156 38.4688 237.648 38.2188 237.07C37.9688 236.477 37.8438 235.852 37.8438 235.195V230.883H42.6484V235.195H59.4297V225.609H43.1172ZM70.9844 215.039H77.0781V207.352H81.6953V215.039H89.8984V219.656H81.6953V235.383H89.8984V240H81.6953C81.0703 240 80.4766 239.883 79.9141 239.648C79.3516 239.398 78.8594 239.07 78.4375 238.664C78.0156 238.242 77.6797 237.75 77.4297 237.188C77.1953 236.625 77.0781 236.023 77.0781 235.383V219.656H70.9844V215.039ZM97.6094 215.039H102.203V235.383H115.07V215.039H119.688V240H115.07V235.781C115.023 236.359 114.867 236.906 114.602 237.422C114.336 237.938 113.992 238.391 113.57 238.781C113.164 239.156 112.695 239.453 112.164 239.672C111.633 239.891 111.07 240 110.477 240H102.203C101.578 240 100.984 239.883 100.422 239.648C99.8594 239.398 99.3672 239.07 98.9453 238.664C98.5391 238.242 98.2109 237.75 97.9609 237.188C97.7266 236.625 97.6094 236.023 97.6094 235.383V215.039ZM127.375 219.656C127.375 219.016 127.492 218.414 127.727 217.852C127.977 217.289 128.305 216.805 128.711 216.398C129.133 215.977 129.625 215.648 130.188 215.414C130.75 215.164 131.344 215.039 131.969 215.039H144.836V205.43H149.453V240H144.836V235.781C144.789 236.359 144.633 236.906 144.367 237.422C144.102 237.938 143.758 238.391 143.336 238.781C142.93 239.156 142.461 239.453 141.93 239.672C141.398 239.891 140.836 240 140.242 240H131.969C131.344 240 130.75 239.883 130.188 239.648C129.625 239.398 129.133 239.07 128.711 238.664C128.305 238.242 127.977 237.75 127.727 237.188C127.492 236.625 127.375 236.023 127.375 235.383V219.656ZM131.969 235.383H144.836V219.656H131.969V235.383ZM178.258 229.875H161.734V235.383H178.258V240H161.734C161.109 240 160.516 239.883 159.953 239.648C159.391 239.398 158.898 239.07 158.477 238.664C158.07 238.242 157.742 237.75 157.492 237.188C157.258 236.625 157.141 236.023 157.141 235.383V219.656C157.141 219.016 157.258 218.414 157.492 217.852C157.742 217.289 158.07 216.805 158.477 216.398C158.898 215.977 159.391 215.648 159.953 215.414C160.516 215.164 161.109 215.039 161.734 215.039H173.641C174.281 215.039 174.883 215.164 175.445 215.414C176.008 215.648 176.492 215.977 176.898 216.398C177.32 216.805 177.648 217.289 177.883 217.852C178.133 218.414 178.258 219.016 178.258 219.656V229.875ZM161.734 219.656V225.258H173.641V219.656H161.734ZM208.047 240H203.43V219.656H190.562V240H185.969V215.039H190.562V219.445C190.594 218.836 190.734 218.266 190.984 217.734C191.234 217.188 191.562 216.719 191.969 216.328C192.391 215.922 192.875 215.609 193.422 215.391C193.969 215.156 194.555 215.039 195.18 215.039H203.43C204.07 215.039 204.672 215.164 205.234 215.414C205.797 215.648 206.281 215.977 206.688 216.398C207.109 216.805 207.438 217.289 207.672 217.852C207.922 218.414 208.047 219.016 208.047 219.656V240ZM214.281 215.039H220.375V207.352H224.992V215.039H233.195V219.656H224.992V235.383H233.195V240H224.992C224.367 240 223.773 239.883 223.211 239.648C222.648 239.398 222.156 239.07 221.734 238.664C221.312 238.242 220.977 237.75 220.727 237.188C220.492 236.625 220.375 236.023 220.375 235.383V219.656H214.281V215.039ZM270.648 206.391L283.609 240H278.805L275.828 232.266H260.664L257.688 240H252.883L265.844 206.391H270.648ZM262.492 227.461H273.977L268.258 212.648L262.492 227.461ZM303.977 235.383V229.594H293.031C292.391 229.594 291.789 229.477 291.227 229.242C290.664 228.992 290.172 228.664 289.75 228.258C289.344 227.836 289.016 227.344 288.766 226.781C288.531 226.219 288.414 225.617 288.414 224.977V219.656C288.414 219.016 288.531 218.414 288.766 217.852C289.016 217.289 289.344 216.805 289.75 216.398C290.172 215.977 290.664 215.648 291.227 215.414C291.789 215.164 292.391 215.039 293.031 215.039H307.633V219.656H293.031V224.977H303.977C304.617 224.977 305.211 225.102 305.758 225.352C306.32 225.586 306.812 225.914 307.234 226.336C307.656 226.742 307.984 227.227 308.219 227.789C308.469 228.352 308.594 228.953 308.594 229.594V235.383C308.594 236.023 308.469 236.625 308.219 237.188C307.984 237.75 307.656 238.242 307.234 238.664C306.812 239.07 306.32 239.398 305.758 239.648C305.211 239.883 304.617 240 303.977 240H288.414V235.383H303.977ZM330.883 235.383V229.594H319.938C319.297 229.594 318.695 229.477 318.133 229.242C317.57 228.992 317.078 228.664 316.656 228.258C316.25 227.836 315.922 227.344 315.672 226.781C315.438 226.219 315.32 225.617 315.32 224.977V219.656C315.32 219.016 315.438 218.414 315.672 217.852C315.922 217.289 316.25 216.805 316.656 216.398C317.078 215.977 317.57 215.648 318.133 215.414C318.695 215.164 319.297 215.039 319.938 215.039H334.539V219.656H319.938V224.977H330.883C331.523 224.977 332.117 225.102 332.664 225.352C333.227 225.586 333.719 225.914 334.141 226.336C334.562 226.742 334.891 227.227 335.125 227.789C335.375 228.352 335.5 228.953 335.5 229.594V235.383C335.5 236.023 335.375 236.625 335.125 237.188C334.891 237.75 334.562 238.242 334.141 238.664C333.719 239.07 333.227 239.398 332.664 239.648C332.117 239.883 331.523 240 330.883 240H315.32V235.383H330.883ZM364.305 235.383C364.305 236.023 364.18 236.625 363.93 237.188C363.695 237.75 363.367 238.242 362.945 238.664C362.539 239.07 362.055 239.398 361.492 239.648C360.945 239.883 360.352 240 359.711 240H347.312C346.688 240 346.094 239.883 345.531 239.648C344.969 239.398 344.477 239.07 344.055 238.664C343.648 238.242 343.32 237.75 343.07 237.188C342.836 236.625 342.719 236.023 342.719 235.383V219.656C342.719 219.016 342.836 218.414 343.07 217.852C343.32 217.289 343.648 216.805 344.055 216.398C344.477 215.977 344.969 215.648 345.531 215.414C346.094 215.164 346.688 215.039 347.312 215.039H359.711C360.352 215.039 360.945 215.164 361.492 215.414C362.055 215.648 362.539 215.977 362.945 216.398C363.367 216.805 363.695 217.289 363.93 217.852C364.18 218.414 364.305 219.016 364.305 219.656V235.383ZM347.312 219.656V235.383H359.711V219.656H347.312ZM376.609 219.656V235.383H388.516V231.164H393.133V235.383C393.133 236.023 393.008 236.625 392.758 237.188C392.523 237.75 392.195 238.242 391.773 238.664C391.367 239.07 390.883 239.398 390.32 239.648C389.758 239.883 389.156 240 388.516 240H376.609C375.984 240 375.391 239.883 374.828 239.648C374.266 239.398 373.773 239.07 373.352 238.664C372.945 238.242 372.617 237.75 372.367 237.188C372.133 236.625 372.016 236.023 372.016 235.383V219.656C372.016 219.016 372.133 218.414 372.367 217.852C372.617 217.289 372.945 216.805 373.352 216.398C373.773 215.977 374.266 215.648 374.828 215.414C375.391 215.164 375.984 215.039 376.609 215.039H388.516C389.156 215.039 389.758 215.164 390.32 215.414C390.883 215.648 391.367 215.977 391.773 216.398C392.195 216.805 392.523 217.289 392.758 217.852C393.008 218.414 393.133 219.016 393.133 219.656V223.875H388.516V219.656H376.609ZM405.695 215.039V240H401.078V215.039H405.695ZM400.844 205.43H405.93V210.234H400.844V205.43ZM413.641 229.102C413.641 228.461 413.758 227.867 413.992 227.32C414.242 226.758 414.57 226.266 414.977 225.844C415.398 225.422 415.891 225.094 416.453 224.859C417.016 224.609 417.609 224.484 418.234 224.484H430.141V219.656H415.07V215.039H430.141C430.781 215.039 431.383 215.164 431.945 215.414C432.508 215.648 432.992 215.977 433.398 216.398C433.82 216.805 434.148 217.289 434.383 217.852C434.633 218.414 434.758 219.016 434.758 219.656V240H430.141V235.781C430.094 236.359 429.938 236.906 429.672 237.422C429.406 237.938 429.062 238.391 428.641 238.781C428.234 239.156 427.766 239.453 427.234 239.672C426.703 239.891 426.141 240 425.547 240H418.234C417.609 240 417.016 239.883 416.453 239.648C415.891 239.398 415.398 239.07 414.977 238.664C414.57 238.242 414.242 237.75 413.992 237.188C413.758 236.625 413.641 236.023 413.641 235.383V229.102ZM418.234 235.383H430.141V229.102H418.234V235.383ZM441.016 215.039H447.109V207.352H451.727V215.039H459.93V219.656H451.727V235.383H459.93V240H451.727C451.102 240 450.508 239.883 449.945 239.648C449.383 239.398 448.891 239.07 448.469 238.664C448.047 238.242 447.711 237.75 447.461 237.188C447.227 236.625 447.109 236.023 447.109 235.383V219.656H441.016V215.039ZM472.492 215.039V240H467.875V215.039H472.492ZM467.641 205.43H472.727V210.234H467.641V205.43ZM502.023 235.383C502.023 236.023 501.898 236.625 501.648 237.188C501.414 237.75 501.086 238.242 500.664 238.664C500.258 239.07 499.773 239.398 499.211 239.648C498.664 239.883 498.07 240 497.43 240H485.031C484.406 240 483.812 239.883 483.25 239.648C482.688 239.398 482.195 239.07 481.773 238.664C481.367 238.242 481.039 237.75 480.789 237.188C480.555 236.625 480.438 236.023 480.438 235.383V219.656C480.438 219.016 480.555 218.414 480.789 217.852C481.039 217.289 481.367 216.805 481.773 216.398C482.195 215.977 482.688 215.648 483.25 215.414C483.812 215.164 484.406 215.039 485.031 215.039H497.43C498.07 215.039 498.664 215.164 499.211 215.414C499.773 215.648 500.258 215.977 500.664 216.398C501.086 216.805 501.414 217.289 501.648 217.852C501.898 218.414 502.023 219.016 502.023 219.656V235.383ZM485.031 219.656V235.383H497.43V219.656H485.031ZM531.812 240H527.195V219.656H514.328V240H509.734V215.039H514.328V219.445C514.359 218.836 514.5 218.266 514.75 217.734C515 217.188 515.328 216.719 515.734 216.328C516.156 215.922 516.641 215.609 517.188 215.391C517.734 215.156 518.32 215.039 518.945 215.039H527.195C527.836 215.039 528.438 215.164 529 215.414C529.562 215.648 530.047 215.977 530.453 216.398C530.875 216.805 531.203 217.289 531.438 217.852C531.688 218.414 531.812 219.016 531.812 219.656V240Z" fill="white"/>
</svg>
