<svg width="270" height="270" viewBox="0 0 270 270" fill="none" xmlns="http://www.w3.org/2000/svg">
<path d="M150 165C150 156.716 156.716 150 165 150H255C263.284 150 270 156.716 270 165V168H150V165Z" fill="black"/>
<path d="M150 216C150 207.716 156.716 201 165 201H255C263.284 201 270 207.716 270 216V219H150V216Z" fill="black"/>
<path d="M150 216C150 207.716 156.716 201 165 201H168V270H165C156.716 270 150 263.284 150 255V216Z" fill="black"/>
<path d="M252 201H255C263.284 201 270 207.716 270 216V255C270 263.284 263.284 270 255 270H252V201Z" fill="black"/>
<path d="M0 15C0 6.71573 6.71573 0 15 0H105C113.284 0 120 6.71573 120 15V18H0V15Z" fill="black"/>
<path d="M0 40H3C11.2843 40 18 46.7157 18 55V65C18 73.2843 11.2843 80 3 80H0V40Z" fill="black"/>
<path d="M0 102H120V105C120 113.284 113.284 120 105 120H15C6.71573 120 0 113.284 0 105V102Z" fill="black"/>
<path d="M150 15C150 6.71573 156.716 0 165 0H255C263.284 0 270 6.71573 270 15V18H150V15Z" fill="black"/>
<path d="M168 51H200.5C204.642 51 208 54.3579 208 58.5V61.5C208 65.6421 204.642 69 200.5 69H168V51Z" fill="black"/>
<path d="M150 102H270V105C270 113.284 263.284 120 255 120H165C156.716 120 150 113.284 150 105V102Z" fill="black"/>
<path d="M0 165C0 156.716 6.71573 150 15 150H105C113.284 150 120 156.716 120 165V168H0V165Z" fill="black"/>
<path d="M40 201H65C73.2843 201 80 207.716 80 216V219H55C46.7157 219 40 212.284 40 204V201Z" fill="black"/>
<path d="M0 165C0 156.716 6.71573 150 15 150H18V210H15C6.71573 210 0 203.284 0 195V165Z" fill="black"/>
<path d="M102 210H105C113.284 210 120 216.716 120 225V255C120 263.284 113.284 270 105 270H102V210Z" fill="black"/>
<path d="M0 252H120V255C120 263.284 113.284 270 105 270H15C6.71573 270 0 263.284 0 255V252Z" fill="black"/>
</svg>
